<svg width="320" height="571" viewBox="0 0 320 571" fill="none" xmlns="http://www.w3.org/2000/svg">
<g clip-path="url(#clip0)">
<path d="M304.059 501.988L299.358 498.429V501.988V505.23L304.059 501.988Z" fill="white"/>
<path d="M262.426 501.988H299.358M299.358 498.429L304.059 501.988L299.358 505.23V498.429Z" stroke="white" stroke-width="1.19824" stroke-linecap="round" stroke-linejoin="round"/>
<circle cx="244.796" cy="501.83" r="5.20026" stroke="white" stroke-width="0.97049"/>
<circle cx="221.967" cy="501.83" r="5.20026" stroke="white" stroke-width="0.97049"/>
<circle cx="199.137" cy="501.83" r="5.20026" stroke="white" stroke-width="0.97049"/>
<circle cx="176.308" cy="501.83" r="5.20026" fill="white" stroke="white" stroke-width="0.97049"/>
<path d="M58.3814 513.446H38.127L48.1408 521.615L58.3814 513.446Z" stroke="white" stroke-width="2" stroke-linecap="round" stroke-linejoin="round"/>
<path d="M20.4902 501.83H18.6738V494.775H16.3477V493.263H22.8164V494.775H20.4902V501.83ZM31.1543 501.83H29.3438V498.132H25.9512V501.83H24.1348V493.263H25.9512V496.621H29.3438V493.263H31.1543V501.83ZM38.2559 501.83H33.3223V493.263H38.2559V494.752H35.1387V496.632H38.0391V498.121H35.1387V500.33H38.2559V501.83ZM48.2227 499.451C48.2227 500.224 47.9434 500.834 47.3848 501.279C46.8301 501.724 46.0566 501.947 45.0645 501.947C44.1504 501.947 43.3418 501.775 42.6387 501.431V499.744C43.2168 500.002 43.7051 500.183 44.1035 500.289C44.5059 500.394 44.873 500.447 45.2051 500.447C45.6035 500.447 45.9082 500.371 46.1191 500.218C46.334 500.066 46.4414 499.839 46.4414 499.539C46.4414 499.371 46.3945 499.222 46.3008 499.093C46.207 498.961 46.0684 498.834 45.8848 498.713C45.7051 498.591 45.3359 498.398 44.7773 498.132C44.2539 497.886 43.8613 497.65 43.5996 497.423C43.3379 497.197 43.1289 496.933 42.9727 496.632C42.8164 496.332 42.7383 495.98 42.7383 495.578C42.7383 494.82 42.9941 494.224 43.5059 493.791C44.0215 493.357 44.7324 493.14 45.6387 493.14C46.084 493.14 46.5078 493.193 46.9102 493.298C47.3164 493.404 47.7402 493.552 48.1816 493.744L47.5957 495.156C47.1387 494.968 46.7598 494.838 46.459 494.763C46.1621 494.689 45.8691 494.652 45.5801 494.652C45.2363 494.652 44.9727 494.732 44.7891 494.892C44.6055 495.052 44.5137 495.261 44.5137 495.519C44.5137 495.679 44.5508 495.82 44.625 495.941C44.6992 496.058 44.8164 496.173 44.9766 496.287C45.1406 496.396 45.5254 496.595 46.1309 496.884C46.9316 497.267 47.4805 497.652 47.7773 498.039C48.0742 498.422 48.2227 498.892 48.2227 499.451ZM53.0801 501.83H51.2637V494.775H48.9375V493.263H55.4062V494.775H53.0801V501.83ZM64.5 497.535C64.5 498.953 64.1484 500.043 63.4453 500.804C62.7422 501.566 61.7344 501.947 60.4219 501.947C59.1094 501.947 58.1016 501.566 57.3984 500.804C56.6953 500.043 56.3438 498.949 56.3438 497.523C56.3438 496.097 56.6953 495.009 57.3984 494.259C58.1055 493.505 59.1172 493.129 60.4336 493.129C61.75 493.129 62.7559 493.507 63.4512 494.265C64.1504 495.023 64.5 496.113 64.5 497.535ZM58.248 497.535C58.248 498.492 58.4297 499.213 58.793 499.697C59.1562 500.181 59.6992 500.423 60.4219 500.423C61.8711 500.423 62.5957 499.461 62.5957 497.535C62.5957 495.605 61.875 494.64 60.4336 494.64C59.7109 494.64 59.166 494.884 58.7988 495.373C58.4316 495.857 58.248 496.578 58.248 497.535ZM68.0918 497.066H68.6777C69.252 497.066 69.6758 496.97 69.9492 496.779C70.2227 496.588 70.3594 496.287 70.3594 495.877C70.3594 495.47 70.2188 495.181 69.9375 495.009C69.6602 494.838 69.2285 494.752 68.6426 494.752H68.0918V497.066ZM68.0918 498.543V501.83H66.2754V493.263H68.7715C69.9355 493.263 70.7969 493.476 71.3555 493.902C71.9141 494.324 72.1934 494.966 72.1934 495.83C72.1934 496.334 72.0547 496.783 71.7773 497.177C71.5 497.568 71.1074 497.875 70.5996 498.097C71.8887 500.023 72.7285 501.267 73.1191 501.83H71.1035L69.0586 498.543H68.0918ZM76.8633 496.791L78.6504 493.263H80.6074L77.7656 498.496V501.83H75.9609V498.554L73.1191 493.263H75.0879L76.8633 496.791Z" fill="white"/>
<rect x="51.8354" y="270.137" width="216.496" height="44" rx="2.94008" fill="url(#paint0_linear)"/>
<path d="M219.81 294.62C219.81 295.345 219.548 295.928 219.024 296.37C218.5 296.807 217.766 297.069 216.823 297.156V298.557H215.886V297.183C214.774 297.161 213.799 296.965 212.961 296.596V294.791C213.357 294.987 213.833 295.16 214.389 295.31C214.95 295.461 215.449 295.55 215.886 295.577V293.458L215.428 293.28C214.526 292.925 213.886 292.54 213.507 292.125C213.134 291.706 212.947 291.188 212.947 290.573C212.947 289.912 213.204 289.37 213.719 288.946C214.239 288.518 214.961 288.258 215.886 288.167V287.121H216.823V288.139C217.866 288.185 218.81 288.395 219.653 288.768L219.01 290.368C218.299 290.076 217.57 289.899 216.823 289.835V291.851C217.712 292.193 218.343 292.489 218.716 292.74C219.095 292.991 219.37 293.266 219.544 293.567C219.721 293.868 219.81 294.219 219.81 294.62ZM217.753 294.722C217.753 294.531 217.675 294.369 217.52 294.237C217.365 294.105 217.133 293.968 216.823 293.827V295.529C217.443 295.424 217.753 295.155 217.753 294.722ZM215.005 290.573C215.005 290.774 215.073 290.94 215.21 291.072C215.351 291.2 215.576 291.332 215.886 291.469V289.862C215.298 289.949 215.005 290.186 215.005 290.573ZM226.127 297.744H224.014V291.961L224.035 291.011L224.069 289.971C223.718 290.322 223.474 290.553 223.338 290.662L222.189 291.585L221.171 290.313L224.39 287.75H226.127V297.744ZM236.114 295.673H234.911V297.744H232.846V295.673H228.581V294.203L232.963 287.75H234.911V294.032H236.114V295.673ZM232.846 294.032V292.337C232.846 292.054 232.858 291.644 232.88 291.106C232.903 290.568 232.921 290.256 232.935 290.17H232.88C232.712 290.543 232.509 290.908 232.272 291.263L230.44 294.032H232.846ZM237.139 296.766C237.139 296.384 237.242 296.094 237.447 295.898C237.652 295.702 237.95 295.604 238.342 295.604C238.721 295.604 239.012 295.705 239.217 295.905C239.427 296.106 239.532 296.393 239.532 296.766C239.532 297.126 239.427 297.411 239.217 297.621C239.008 297.826 238.716 297.929 238.342 297.929C237.96 297.929 237.663 297.828 237.454 297.628C237.244 297.423 237.139 297.136 237.139 296.766ZM247.838 292.015C247.838 293.984 247.423 295.454 246.593 296.425C245.764 297.395 244.508 297.881 242.827 297.881C242.234 297.881 241.785 297.849 241.48 297.785V296.09C241.863 296.185 242.264 296.233 242.683 296.233C243.39 296.233 243.971 296.131 244.426 295.926C244.882 295.716 245.231 295.39 245.472 294.948C245.714 294.501 245.853 293.888 245.889 293.109H245.807C245.543 293.538 245.238 293.838 244.891 294.012C244.545 294.185 244.112 294.271 243.592 294.271C242.722 294.271 242.036 293.993 241.535 293.437C241.033 292.877 240.783 292.1 240.783 291.106C240.783 290.035 241.086 289.19 241.692 288.57C242.303 287.946 243.132 287.634 244.18 287.634C244.919 287.634 245.563 287.807 246.115 288.153C246.671 288.499 247.097 289.003 247.393 289.664C247.689 290.32 247.838 291.104 247.838 292.015ZM244.221 289.329C243.784 289.329 243.442 289.479 243.196 289.78C242.95 290.081 242.827 290.514 242.827 291.079C242.827 291.562 242.938 291.945 243.162 292.227C243.385 292.51 243.725 292.651 244.18 292.651C244.609 292.651 244.976 292.512 245.281 292.234C245.586 291.952 245.739 291.628 245.739 291.263C245.739 290.721 245.595 290.263 245.308 289.889C245.026 289.516 244.663 289.329 244.221 289.329ZM255.836 292.015C255.836 293.984 255.421 295.454 254.591 296.425C253.762 297.395 252.506 297.881 250.825 297.881C250.232 297.881 249.783 297.849 249.478 297.785V296.09C249.861 296.185 250.262 296.233 250.681 296.233C251.388 296.233 251.969 296.131 252.424 295.926C252.88 295.716 253.229 295.39 253.47 294.948C253.712 294.501 253.851 293.888 253.887 293.109H253.805C253.541 293.538 253.236 293.838 252.889 294.012C252.543 294.185 252.11 294.271 251.59 294.271C250.72 294.271 250.034 293.993 249.533 293.437C249.032 292.877 248.781 292.1 248.781 291.106C248.781 290.035 249.084 289.19 249.69 288.57C250.301 287.946 251.13 287.634 252.178 287.634C252.917 287.634 253.561 287.807 254.113 288.153C254.669 288.499 255.095 289.003 255.391 289.664C255.687 290.32 255.836 291.104 255.836 292.015ZM252.219 289.329C251.782 289.329 251.44 289.479 251.194 289.78C250.948 290.081 250.825 290.514 250.825 291.079C250.825 291.562 250.936 291.945 251.16 292.227C251.383 292.51 251.723 292.651 252.178 292.651C252.607 292.651 252.974 292.512 253.279 292.234C253.584 291.952 253.737 291.628 253.737 291.263C253.737 290.721 253.593 290.263 253.306 289.889C253.024 289.516 252.661 289.329 252.219 289.329Z" fill="#1A1917"/>
<path opacity="0.5" d="M202.416 283.137L202.416 301.137" stroke="#1A1917" stroke-width="0.642383" stroke-linecap="round"/>
<path d="M63.2758 287.042H66.3861C67.8034 287.042 68.8311 287.245 69.4691 287.651C70.1117 288.052 70.433 288.692 70.433 289.572C70.433 290.169 70.2917 290.659 70.0092 291.042C69.7312 291.424 69.3597 291.654 68.8949 291.732V291.8C69.5284 291.942 69.9841 292.206 70.2621 292.593C70.5446 292.981 70.6859 293.496 70.6859 294.138C70.6859 295.05 70.3555 295.761 69.6947 296.271C69.0385 296.781 68.1452 297.037 67.015 297.037H63.2758V287.042ZM65.3949 291H66.6254C67.1996 291 67.6143 290.912 67.8695 290.734C68.1293 290.556 68.2592 290.262 68.2592 289.852C68.2592 289.469 68.1179 289.196 67.8353 289.032C67.5573 288.863 67.1153 288.779 66.5092 288.779H65.3949V291ZM65.3949 292.682V295.287H66.7758C67.3591 295.287 67.7898 295.175 68.0677 294.952C68.3457 294.728 68.4847 294.387 68.4847 293.926C68.4847 293.097 67.8923 292.682 66.7074 292.682H65.3949ZM77.932 297.037L77.6517 296.059H77.5424C77.3191 296.415 77.0023 296.69 76.5922 296.886C76.182 297.078 75.7149 297.173 75.1908 297.173C74.293 297.173 73.6163 296.934 73.1605 296.456C72.7048 295.972 72.4769 295.28 72.4769 294.377V289.394H74.5619V293.858C74.5619 294.409 74.6599 294.824 74.8558 295.102C75.0518 295.375 75.364 295.512 75.7924 295.512C76.3757 295.512 76.7972 295.319 77.057 294.931C77.3168 294.539 77.4467 293.892 77.4467 292.99V289.394H79.5316V297.037H77.932ZM80.6254 289.394H82.9086L84.351 293.694C84.474 294.068 84.5583 294.51 84.6039 295.02H84.6449C84.695 294.551 84.793 294.109 84.9388 293.694L86.3539 289.394H88.5892L85.3558 298.014C85.0596 298.812 84.6358 299.409 84.0844 299.805C83.5375 300.202 82.8972 300.4 82.1635 300.4C81.8034 300.4 81.4502 300.361 81.1039 300.284V298.629C81.3545 298.689 81.628 298.718 81.9242 298.718C82.2933 298.718 82.6146 298.604 82.8881 298.376C83.1661 298.153 83.3825 297.814 83.5375 297.358L83.6605 296.982L80.6254 289.394ZM100.381 297.037H98.2963V292.573C98.2963 292.021 98.1983 291.609 98.0023 291.335C97.8064 291.057 97.4942 290.918 97.0658 290.918C96.4825 290.918 96.0609 291.114 95.8011 291.506C95.5414 291.894 95.4115 292.539 95.4115 293.441V297.037H93.3265V289.394H94.9193L95.1996 290.372H95.3158C95.5482 290.002 95.8672 289.724 96.2728 289.538C96.683 289.346 97.1478 289.25 97.6674 289.25C98.556 289.25 99.2305 289.492 99.6908 289.975C100.151 290.454 100.381 291.146 100.381 292.053V297.037ZM104.189 293.202C104.189 293.958 104.312 294.53 104.558 294.917C104.809 295.305 105.214 295.499 105.775 295.499C106.331 295.499 106.73 295.307 106.971 294.924C107.217 294.537 107.34 293.963 107.34 293.202C107.34 292.445 107.217 291.878 106.971 291.5C106.725 291.121 106.322 290.932 105.761 290.932C105.205 290.932 104.804 291.121 104.558 291.5C104.312 291.873 104.189 292.441 104.189 293.202ZM109.473 293.202C109.473 294.446 109.145 295.419 108.489 296.121C107.832 296.822 106.919 297.173 105.747 297.173C105.014 297.173 104.367 297.014 103.806 296.695C103.245 296.371 102.815 295.909 102.514 295.307C102.213 294.706 102.063 294.004 102.063 293.202C102.063 291.953 102.389 290.982 103.04 290.29C103.692 289.597 104.608 289.25 105.788 289.25C106.522 289.25 107.169 289.41 107.73 289.729C108.29 290.048 108.721 290.506 109.022 291.103C109.323 291.7 109.473 292.4 109.473 293.202ZM117.478 297.037L116.89 294.364L116.097 290.987H116.049L114.655 297.037H112.412L110.239 289.394H112.317L113.199 292.778C113.34 293.384 113.483 294.22 113.629 295.287H113.67C113.689 294.94 113.768 294.391 113.91 293.639L114.019 293.058L114.962 289.394H117.259L118.155 293.058C118.173 293.158 118.2 293.306 118.237 293.502C118.278 293.698 118.316 293.908 118.353 294.131C118.389 294.35 118.421 294.567 118.449 294.781C118.481 294.99 118.499 295.159 118.503 295.287H118.544C118.585 294.958 118.658 294.51 118.763 293.94C118.868 293.366 118.943 292.978 118.989 292.778L119.905 289.394H121.949L119.747 297.037H117.478ZM128.484 293.202C128.484 293.958 128.607 294.53 128.853 294.917C129.104 295.305 129.509 295.499 130.07 295.499C130.626 295.499 131.024 295.307 131.266 294.924C131.512 294.537 131.635 293.963 131.635 293.202C131.635 292.445 131.512 291.878 131.266 291.5C131.02 291.121 130.617 290.932 130.056 290.932C129.5 290.932 129.099 291.121 128.853 291.5C128.607 291.873 128.484 292.441 128.484 293.202ZM133.768 293.202C133.768 294.446 133.44 295.419 132.784 296.121C132.127 296.822 131.214 297.173 130.042 297.173C129.309 297.173 128.661 297.014 128.101 296.695C127.54 296.371 127.11 295.909 126.809 295.307C126.508 294.706 126.358 294.004 126.358 293.202C126.358 291.953 126.684 290.982 127.335 290.29C127.987 289.597 128.903 289.25 130.083 289.25C130.817 289.25 131.464 289.41 132.025 289.729C132.585 290.048 133.016 290.506 133.317 291.103C133.618 291.7 133.768 292.4 133.768 293.202ZM142.545 297.037H140.46V292.573C140.46 292.021 140.362 291.609 140.166 291.335C139.97 291.057 139.658 290.918 139.23 290.918C138.647 290.918 138.225 291.114 137.965 291.506C137.705 291.894 137.576 292.539 137.576 293.441V297.037H135.491V289.394H137.083L137.364 290.372H137.48C137.712 290.002 138.031 289.724 138.437 289.538C138.847 289.346 139.312 289.25 139.831 289.25C140.72 289.25 141.395 289.492 141.855 289.975C142.315 290.454 142.545 291.146 142.545 292.053V297.037ZM154.392 294.261C154.392 295.164 154.066 295.875 153.414 296.394C152.767 296.914 151.865 297.173 150.707 297.173C149.641 297.173 148.698 296.973 147.877 296.572V294.603C148.552 294.904 149.121 295.116 149.586 295.239C150.056 295.362 150.484 295.423 150.871 295.423C151.336 295.423 151.692 295.334 151.938 295.157C152.189 294.979 152.314 294.715 152.314 294.364C152.314 294.168 152.259 293.995 152.15 293.844C152.04 293.689 151.879 293.541 151.664 293.4C151.455 293.259 151.024 293.033 150.372 292.723C149.762 292.436 149.304 292.16 148.998 291.896C148.693 291.632 148.449 291.324 148.267 290.973C148.085 290.622 147.994 290.212 147.994 289.743C147.994 288.859 148.292 288.164 148.889 287.658C149.491 287.152 150.32 286.899 151.377 286.899C151.897 286.899 152.391 286.96 152.861 287.083C153.335 287.207 153.829 287.38 154.344 287.603L153.661 289.25C153.127 289.032 152.685 288.879 152.334 288.792C151.988 288.706 151.646 288.663 151.309 288.663C150.908 288.663 150.6 288.756 150.386 288.943C150.172 289.13 150.065 289.374 150.065 289.674C150.065 289.861 150.108 290.025 150.195 290.167C150.281 290.303 150.418 290.438 150.605 290.57C150.796 290.697 151.245 290.93 151.952 291.267C152.886 291.714 153.526 292.163 153.872 292.614C154.219 293.06 154.392 293.61 154.392 294.261ZM159.259 295.512C159.624 295.512 160.061 295.432 160.572 295.273V296.825C160.052 297.057 159.414 297.173 158.658 297.173C157.824 297.173 157.215 296.964 156.832 296.544C156.454 296.121 156.265 295.487 156.265 294.644V290.959H155.267V290.078L156.415 289.38L157.017 287.767H158.35V289.394H160.49V290.959H158.35V294.644C158.35 294.94 158.432 295.159 158.596 295.3C158.765 295.442 158.986 295.512 159.259 295.512ZM165.288 290.734C164.846 290.734 164.5 290.875 164.249 291.158C163.999 291.436 163.855 291.832 163.819 292.347H166.745C166.735 291.832 166.601 291.436 166.341 291.158C166.081 290.875 165.731 290.734 165.288 290.734ZM165.582 297.173C164.352 297.173 163.39 296.834 162.698 296.155C162.005 295.476 161.659 294.514 161.659 293.27C161.659 291.989 161.978 291 162.616 290.303C163.258 289.601 164.145 289.25 165.275 289.25C166.355 289.25 167.196 289.558 167.797 290.173C168.399 290.789 168.7 291.639 168.7 292.723V293.735H163.771C163.794 294.327 163.969 294.79 164.297 295.123C164.625 295.455 165.086 295.622 165.678 295.622C166.138 295.622 166.574 295.574 166.984 295.478C167.394 295.382 167.822 295.23 168.269 295.02V296.633C167.904 296.816 167.515 296.95 167.1 297.037C166.685 297.128 166.179 297.173 165.582 297.173ZM175.248 297.037L174.845 295.998H174.79C174.439 296.44 174.077 296.747 173.703 296.92C173.334 297.089 172.851 297.173 172.254 297.173C171.521 297.173 170.942 296.964 170.518 296.544C170.099 296.125 169.889 295.528 169.889 294.753C169.889 293.942 170.172 293.345 170.737 292.962C171.306 292.575 172.163 292.361 173.307 292.32L174.633 292.279V291.944C174.633 291.169 174.237 290.782 173.444 290.782C172.833 290.782 172.115 290.966 171.29 291.335L170.6 289.927C171.48 289.467 172.455 289.237 173.526 289.237C174.551 289.237 175.337 289.46 175.884 289.907C176.431 290.353 176.704 291.032 176.704 291.944V297.037H175.248ZM174.633 293.496L173.827 293.523C173.22 293.541 172.769 293.651 172.473 293.851C172.177 294.052 172.029 294.357 172.029 294.767C172.029 295.355 172.366 295.649 173.04 295.649C173.523 295.649 173.909 295.51 174.196 295.232C174.487 294.954 174.633 294.585 174.633 294.125V293.496ZM185.701 297.037H183.616V292.573C183.616 292.021 183.522 291.609 183.335 291.335C183.153 291.057 182.864 290.918 182.467 290.918C181.934 290.918 181.547 291.114 181.305 291.506C181.064 291.898 180.943 292.543 180.943 293.441V297.037H178.858V289.394H180.451L180.731 290.372H180.847C181.052 290.021 181.348 289.747 181.736 289.551C182.123 289.351 182.567 289.25 183.069 289.25C184.213 289.25 184.987 289.624 185.393 290.372H185.578C185.783 290.016 186.083 289.74 186.48 289.544C186.881 289.348 187.332 289.25 187.833 289.25C188.699 289.25 189.353 289.474 189.795 289.92C190.242 290.362 190.465 291.073 190.465 292.053V297.037H188.373V292.573C188.373 292.021 188.28 291.609 188.093 291.335C187.911 291.057 187.621 290.918 187.225 290.918C186.715 290.918 186.332 291.101 186.077 291.465C185.826 291.83 185.701 292.409 185.701 293.202V297.037Z" fill="#1A1917"/>
<path d="M47.0137 220.933H50.4337V219.133H45.0337V231.733H50.4337V229.933H47.0137V226.243H49.7317V224.443H47.0137V220.933ZM58.4307 219.133L56.9007 223.777L55.4067 219.133H53.3547L55.4247 225.253L53.2107 231.733H55.0647L56.7027 226.747L58.3227 231.733H60.4107L58.1967 225.253L60.2667 219.133H58.4307ZM66.3111 219.133H63.3951V231.733H65.3751V226.999H66.3111C68.2911 226.999 69.2631 225.901 69.2631 223.885V222.247C69.2631 220.231 68.2911 219.133 66.3111 219.133ZM66.3111 220.933C66.9411 220.933 67.2831 221.221 67.2831 222.121V224.011C67.2831 224.911 66.9411 225.199 66.3111 225.199H65.3751V220.933H66.3111ZM74.1602 220.933H77.5802V219.133H72.1802V231.733H77.5802V229.933H74.1602V226.243H76.8782V224.443H74.1602V220.933ZM86.9632 231.733C86.7652 231.265 86.7472 230.815 86.7472 230.203V228.259C86.7472 226.945 86.4232 225.991 85.4332 225.577C86.3152 225.163 86.7292 224.317 86.7292 223.021V222.031C86.7292 220.087 85.8472 219.133 83.7952 219.133H80.8072V231.733H82.7872V226.603H83.4712C84.3712 226.603 84.7672 227.035 84.7672 228.205V230.185C84.7672 231.211 84.8392 231.409 84.9472 231.733H86.9632ZM83.7412 220.933C84.4432 220.933 84.7492 221.329 84.7492 222.229V223.471C84.7492 224.479 84.2992 224.803 83.5612 224.803H82.7872V220.933H83.7412ZM90.0494 231.733H92.0294V219.133H90.0494V231.733ZM97.4571 220.933H100.877V219.133H95.4771V231.733H100.877V229.933H97.4571V226.243H100.175V224.443H97.4571V220.933ZM108.334 231.733H110.368V219.133H108.604V226.675L106.57 219.133H104.086V231.733H105.868V222.607L108.334 231.733ZM117.656 227.035V228.835C117.656 229.735 117.26 230.059 116.63 230.059C116 230.059 115.604 229.735 115.604 228.835V222.031C115.604 221.131 116 220.789 116.63 220.789C117.26 220.789 117.656 221.131 117.656 222.031V223.381H119.528V222.157C119.528 220.141 118.52 218.989 116.576 218.989C114.632 218.989 113.624 220.141 113.624 222.157V228.709C113.624 230.725 114.632 231.877 116.576 231.877C118.52 231.877 119.528 230.725 119.528 228.709V227.035H117.656ZM124.709 220.933H128.129V219.133H122.729V231.733H128.129V229.933H124.709V226.243H127.427V224.443H124.709V220.933ZM140.381 231.733H142.415V219.133H140.651V226.675L138.617 219.133H136.133V231.733H137.915V222.607L140.381 231.733ZM147.813 220.933H151.233V219.133H145.833V231.733H151.233V229.933H147.813V226.243H150.531V224.443H147.813V220.933ZM159.572 231.733H162.2L163.604 219.133H161.876L160.85 229.141L159.86 219.133H157.952L156.998 229.069L155.936 219.133H154.01L155.414 231.733H158.132L158.852 225.019L159.572 231.733ZM171.145 222.157C171.145 225.757 175.015 226.243 175.015 228.835C175.015 229.735 174.619 230.059 173.989 230.059C173.359 230.059 172.963 229.735 172.963 228.835V227.935H171.091V228.709C171.091 230.725 172.099 231.877 174.043 231.877C175.987 231.877 176.995 230.725 176.995 228.709C176.995 225.109 173.125 224.623 173.125 222.031C173.125 221.131 173.485 220.789 174.115 220.789C174.745 220.789 175.105 221.131 175.105 222.031V222.553H176.977V222.157C176.977 220.141 175.987 218.989 174.061 218.989C172.135 218.989 171.145 220.141 171.145 222.157ZM181.947 222.031C181.947 221.131 182.343 220.789 182.973 220.789C183.603 220.789 183.999 221.131 183.999 222.031V228.835C183.999 229.735 183.603 230.077 182.973 230.077C182.343 230.077 181.947 229.735 181.947 228.835V222.031ZM179.967 228.709C179.967 230.725 181.029 231.877 182.973 231.877C184.917 231.877 185.979 230.725 185.979 228.709V222.157C185.979 220.141 184.917 218.989 182.973 218.989C181.029 218.989 179.967 220.141 179.967 222.157V228.709ZM193.136 227.035V228.835C193.136 229.735 192.74 230.059 192.11 230.059C191.48 230.059 191.084 229.735 191.084 228.835V222.031C191.084 221.131 191.48 220.789 192.11 220.789C192.74 220.789 193.136 221.131 193.136 222.031V223.381H195.008V222.157C195.008 220.141 194 218.989 192.056 218.989C190.112 218.989 189.104 220.141 189.104 222.157V228.709C189.104 230.725 190.112 231.877 192.056 231.877C194 231.877 195.008 230.725 195.008 228.709V227.035H193.136ZM198.21 231.733H200.19V219.133H198.21V231.733ZM208.029 219.133H205.131L203.115 231.733H204.933L205.275 229.447H207.705L208.047 231.733H210.045L208.029 219.133ZM206.481 221.365L207.435 227.737H205.527L206.481 221.365ZM212.967 231.733H218.205V229.933H214.947V219.133H212.967V231.733ZM228.85 219.133H225.862V231.733H228.976C230.956 231.733 231.982 230.689 231.982 228.745V227.719C231.982 226.387 231.568 225.433 230.506 225.019C231.388 224.605 231.784 223.777 231.784 222.481V222.031C231.784 220.087 230.902 219.133 228.85 219.133ZM228.724 226.063C229.624 226.063 230.002 226.423 230.002 227.593V228.691C230.002 229.627 229.642 229.933 228.976 229.933H227.842V226.063H228.724ZM228.796 220.933C229.498 220.933 229.804 221.329 229.804 222.229V222.931C229.804 223.939 229.354 224.263 228.616 224.263H227.842V220.933H228.796ZM239.566 219.133H236.668L234.652 231.733H236.47L236.812 229.447H239.242L239.584 231.733H241.582L239.566 219.133ZM238.018 221.365L238.972 227.737H237.064L238.018 221.365ZM243.243 220.933H245.313V231.733H247.293V220.933H249.363V219.133H243.243V220.933ZM251.659 220.933H253.729V231.733H255.709V220.933H257.779V219.133H251.659V220.933ZM260.651 231.733H265.889V229.933H262.631V219.133H260.651V231.733ZM270.731 220.933H274.151V219.133H268.751V231.733H274.151V229.933H270.731V226.243H273.449V224.443H270.731V220.933ZM119.404 249.733C119.206 249.265 119.188 248.815 119.188 248.203V246.259C119.188 244.945 118.864 243.991 117.874 243.577C118.756 243.163 119.17 242.317 119.17 241.021V240.031C119.17 238.087 118.288 237.133 116.236 237.133H113.248V249.733H115.228V244.603H115.912C116.812 244.603 117.208 245.035 117.208 246.205V248.185C117.208 249.211 117.28 249.409 117.388 249.733H119.404ZM116.182 238.933C116.884 238.933 117.19 239.329 117.19 240.229V241.471C117.19 242.479 116.74 242.803 116.002 242.803H115.228V238.933H116.182ZM124.308 240.031C124.308 239.131 124.704 238.789 125.334 238.789C125.964 238.789 126.36 239.131 126.36 240.031V246.835C126.36 247.735 125.964 248.077 125.334 248.077C124.704 248.077 124.308 247.735 124.308 246.835V240.031ZM122.328 246.709C122.328 248.725 123.39 249.877 125.334 249.877C127.278 249.877 128.34 248.725 128.34 246.709V240.157C128.34 238.141 127.278 236.989 125.334 236.989C123.39 236.989 122.328 238.141 122.328 240.157V246.709ZM133.217 249.733H135.197V245.557L137.699 237.133H135.809L134.297 242.875L132.785 237.133H130.715L133.217 245.557V249.733ZM144.013 237.133H141.115L139.099 249.733H140.917L141.259 247.447H143.689L144.031 249.733H146.029L144.013 237.133ZM142.465 239.365L143.419 245.737H141.511L142.465 239.365ZM148.951 249.733H154.189V247.933H150.931V237.133H148.951V249.733ZM159.03 238.933H162.45V237.133H157.05V249.733H162.45V247.933H159.03V244.243H161.748V242.443H159.03V238.933ZM173.442 244.513H174.342V246.835C174.342 247.735 173.946 248.059 173.316 248.059C172.686 248.059 172.29 247.735 172.29 246.835V240.031C172.29 239.131 172.686 238.789 173.316 238.789C173.946 238.789 174.342 239.131 174.342 240.031V241.381H176.214V240.157C176.214 238.141 175.206 236.989 173.262 236.989C171.318 236.989 170.31 238.141 170.31 240.157V246.709C170.31 248.725 171.318 249.877 173.262 249.877C175.206 249.877 176.214 248.725 176.214 246.709V242.713H173.442V244.513ZM183.86 237.133H180.962L178.946 249.733H180.764L181.106 247.447H183.536L183.878 249.733H185.876L183.86 237.133ZM182.312 239.365L183.266 245.737H181.358L182.312 239.365ZM191.534 237.133H188.78V249.733H190.508V240.823L191.984 249.733H193.856L195.224 240.697V249.733H197.096V237.133H194.342L192.992 246.079L191.534 237.133ZM202.517 238.933H205.937V237.133H200.537V249.733H205.937V247.933H202.517V244.243H205.235V242.443H202.517V238.933Z" fill="white"/>
<path d="M20.3343 186.598C20.3343 193.198 27.4293 194.089 27.4293 198.841C27.4293 200.491 26.7033 201.085 25.5483 201.085C24.3933 201.085 23.6673 200.491 23.6673 198.841V197.191H20.2353V198.61C20.2353 202.306 22.0833 204.418 25.6473 204.418C29.2113 204.418 31.0593 202.306 31.0593 198.61C31.0593 192.01 23.9643 191.119 23.9643 186.367C23.9643 184.717 24.6243 184.09 25.7793 184.09C26.9343 184.09 27.5943 184.717 27.5943 186.367V187.324H31.0263V186.598C31.0263 182.902 29.2113 180.79 25.6803 180.79C22.1493 180.79 20.3343 182.902 20.3343 186.598ZM35.9741 181.054V198.643C35.9741 202.339 37.8221 204.451 41.3861 204.451C44.9501 204.451 46.7981 202.339 46.7981 198.643V181.054H43.3661V198.874C43.3661 200.524 42.6401 201.118 41.4851 201.118C40.3301 201.118 39.6041 200.524 39.6041 198.874V181.054H35.9741ZM63.5735 204.154C63.2105 203.296 63.1775 202.471 63.1775 201.349V197.785C63.1775 195.376 62.5835 193.627 60.7685 192.868C62.3855 192.109 63.1445 190.558 63.1445 188.182V186.367C63.1445 182.803 61.5275 181.054 57.7655 181.054H52.2875V204.154H55.9175V194.749H57.1715C58.8215 194.749 59.5475 195.541 59.5475 197.686V201.316C59.5475 203.197 59.6795 203.56 59.8775 204.154H63.5735ZM57.6665 184.354C58.9535 184.354 59.5145 185.08 59.5145 186.73V189.007C59.5145 190.855 58.6895 191.449 57.3365 191.449H55.9175V184.354H57.6665ZM71.2064 181.054H67.5434L71.1074 204.154H76.5194L80.0834 181.054H76.7504L73.9784 199.897L71.2064 181.054ZM84.7777 204.154H88.4077V181.054H84.7777V204.154ZM96.7679 181.054H93.1049L96.6689 204.154H102.081L105.645 181.054H102.312L99.5399 199.897L96.7679 181.054ZM113.969 184.354H120.239V181.054H110.339V204.154H120.239V200.854H113.969V194.089H118.952V190.789H113.969V184.354ZM141.665 181.054H136.352L132.656 204.154H135.989L136.616 199.963H141.071L141.698 204.154H145.361L141.665 181.054ZM138.827 185.146L140.576 196.828H137.078L138.827 185.146ZM148.995 184.354H152.79V204.154H156.42V184.354H160.215V181.054H148.995V184.354ZM180.99 181.054H175.677L171.981 204.154H175.314L175.941 199.963H180.396L181.023 204.154H184.686L180.99 181.054ZM178.152 185.146L179.901 196.828H176.403L178.152 185.146ZM189.376 204.154H198.979V200.854H193.006V181.054H189.376V204.154ZM203.559 204.154H213.162V200.854H207.189V181.054H203.559V204.154ZM232.961 195.541V198.841C232.961 200.491 232.235 201.085 231.08 201.085C229.925 201.085 229.199 200.491 229.199 198.841V186.367C229.199 184.717 229.925 184.09 231.08 184.09C232.235 184.09 232.961 184.717 232.961 186.367V188.842H236.393V186.598C236.393 182.902 234.545 180.79 230.981 180.79C227.417 180.79 225.569 182.902 225.569 186.598V198.61C225.569 202.306 227.417 204.418 230.981 204.418C234.545 204.418 236.393 202.306 236.393 198.61V195.541H232.961ZM244.928 186.367C244.928 184.717 245.654 184.09 246.809 184.09C247.964 184.09 248.69 184.717 248.69 186.367V198.841C248.69 200.491 247.964 201.118 246.809 201.118C245.654 201.118 244.928 200.491 244.928 198.841V186.367ZM241.298 198.61C241.298 202.306 243.245 204.418 246.809 204.418C250.373 204.418 252.32 202.306 252.32 198.61V186.598C252.32 182.902 250.373 180.79 246.809 180.79C243.245 180.79 241.298 182.902 241.298 186.598V198.61ZM257.217 186.598C257.217 193.198 264.312 194.089 264.312 198.841C264.312 200.491 263.586 201.085 262.431 201.085C261.276 201.085 260.55 200.491 260.55 198.841V197.191H257.118V198.61C257.118 202.306 258.966 204.418 262.53 204.418C266.094 204.418 267.942 202.306 267.942 198.61C267.942 192.01 260.847 191.119 260.847 186.367C260.847 184.717 261.507 184.09 262.662 184.09C263.817 184.09 264.477 184.717 264.477 186.367V187.324H267.909V186.598C267.909 182.902 266.094 180.79 262.563 180.79C259.032 180.79 257.217 182.902 257.217 186.598ZM271.966 184.354H275.761V204.154H279.391V184.354H283.186V181.054H271.966V184.354ZM287.323 186.598C287.323 193.198 294.418 194.089 294.418 198.841C294.418 200.491 293.692 201.085 292.537 201.085C291.382 201.085 290.656 200.491 290.656 198.841V197.191H287.224V198.61C287.224 202.306 289.072 204.418 292.636 204.418C296.2 204.418 298.048 202.306 298.048 198.61C298.048 192.01 290.953 191.119 290.953 186.367C290.953 184.717 291.613 184.09 292.768 184.09C293.923 184.09 294.583 184.717 294.583 186.367V187.324H298.015V186.598C298.015 182.902 296.2 180.79 292.669 180.79C289.138 180.79 287.323 182.902 287.323 186.598Z" fill="white"/>
</g>
<defs>
<linearGradient id="paint0_linear" x1="150.834" y1="270.137" x2="148.49" y2="314.164" gradientUnits="userSpaceOnUse">
<stop stop-color="#FFB548"/>
<stop offset="0.995234" stop-color="#F3AF34"/>
</linearGradient>
<clipPath id="clip0">
<rect width="320" height="571" fill="white"/>
</clipPath>
</defs>
</svg>
